<svg width="72" height="61" viewBox="0 0 72 61" fill="none" xmlns="http://www.w3.org/2000/svg">
<rect x="0.633545" y="0.114868" width="70.8147" height="59.9958" rx="19.6707" fill="#87BCD9"/>
<path d="M41.5289 30.1127C41.5289 32.0601 39.9553 33.6338 38.0079 33.6338C36.0605 33.6338 34.4868 32.0601 34.4868 30.1127C34.4868 28.1653 36.0605 26.5917 38.0079 26.5917C39.9553 26.5917 41.5289 28.1653 41.5289 30.1127Z" stroke="#292D32" stroke-width="1.47531" stroke-linecap="round" stroke-linejoin="round"/>
<path d="M38.008 38.2465C41.4799 38.2465 44.7157 36.2008 46.968 32.66C47.8532 31.2733 47.8532 28.9423 46.968 27.5555C44.7157 24.0148 41.4799 21.969 38.008 21.969C34.5361 21.969 31.3003 24.0148 29.048 27.5555C28.1628 28.9423 28.1628 31.2733 29.048 32.66C31.3003 36.2008 34.5361 38.2465 38.008 38.2465Z" stroke="#292D32" stroke-width="1.47531" stroke-linecap="round" stroke-linejoin="round"/>
</svg>
