<svg width="16" height="16" viewBox="0 0 16 16" fill="none" xmlns="http://www.w3.org/2000/svg">
<path d="M8.94139 1.65457L10.2397 4.25111C10.4167 4.60518 10.8888 4.95926 11.2822 5.01827L13.6329 5.41168C15.1377 5.6674 15.4918 6.7493 14.4099 7.83119L12.5805 9.6704C12.2756 9.9753 12.0985 10.5753 12.1969 11.008L12.7182 13.28C13.1313 15.07 12.1772 15.7683 10.5937 14.834L8.39061 13.5259C7.98736 13.2898 7.33822 13.2898 6.93497 13.5259L4.72201 14.8241C3.13852 15.7585 2.18449 15.0602 2.59757 13.2701L3.11885 10.9982C3.2172 10.5753 3.04017 9.9753 2.73527 9.66057L0.915725 7.84102C-0.166167 6.75913 0.187907 5.6674 1.69272 5.42152L4.04337 5.0281C4.43679 4.95926 4.90889 4.61502 5.08592 4.26094L6.38419 1.66441C7.0825 0.248111 8.24308 0.248111 8.94139 1.65457Z" fill="#ACACAC"/>
</svg>
